<svg xmlns="http://www.w3.org/2000/svg" width="64" height="64" viewBox="0 0 64 64">
  <defs>
    <linearGradient id="gold" x1="0" y1="1" x2="1" y2="0">
      <stop offset="0%" stop-color="#b36511"/><stop offset="45%" stop-color="#e8a53c"/><stop offset="100%" stop-color="#ffe0a0"/>
    </linearGradient>
    <linearGradient id="smoke" x1="0" y1="1" x2="0" y2="0">
      <stop offset="0%" stop-color="rgba(255,242,214,0.85)"/><stop offset="55%" stop-color="rgba(255,236,200,0.5)"/><stop offset="100%" stop-color="rgba(255,236,200,0)"/>
    </linearGradient>
    <radialGradient id="ember" cx="50%" cy="50%" r="50%">
      <stop offset="0%" stop-color="#ffd98c"/>
      <stop offset="60%" stop-color="#e08a2e"/>
      <stop offset="100%" stop-color="rgba(224,138,46,0)"/>
    </radialGradient>
    <radialGradient id="halo" cx="50%" cy="62%" r="55%">
      <stop offset="0%" stop-color="rgba(240,160,70,0.5)"/>
      <stop offset="55%" stop-color="rgba(230,140,60,0.16)"/>
      <stop offset="100%" stop-color="rgba(230,140,60,0)"/>
    </radialGradient>
    <filter id="bloom" x="-40%" y="-40%" width="180%" height="180%">
      <feGaussianBlur stdDeviation="2.4" result="blur"/>
      <feMerge><feMergeNode in="blur"/><feMergeNode in="SourceGraphic"/></feMerge>
    </filter>
    <filter id="smokefx" x="-60%" y="-60%" width="220%" height="220%">
      <feTurbulence type="fractalNoise" baseFrequency="0.012 0.045" numOctaves="2" seed="7" result="noise"/>
      <feDisplacementMap in="SourceGraphic" in2="noise" scale="6" xChannelSelector="R" yChannelSelector="G"/>
    </filter>
  </defs>
  
  <g transform="translate(5.2363636363636346 2.5599999999999987) scale(0.4460606060606061)">
    <g filter="url(#smokefx)"><path d="M 54.5 41.0 C 54.4 38.2 52.6 36.6 51.9 34.2 C 51.5 31.4 50.0 29.9 49.5 27.6 C 50.5 24.5 53.1 22.8 53.9 20.3 C 54.5 17.8 57.0 16.4 58.5 14.4 C 57.5 11.7 54.5 10.2 54.0 8.0" stroke="url(#smoke)" stroke-width="2.6" fill="none" stroke-linecap="round" opacity="0.5"/>
      <path d="M 60.5 39.0 C 59.7 36.4 58.2 35.0 57.1 32.9 C 56.0 30.3 56.0 28.9 55.5 26.7 C 55.7 24.5 56.4 23.3 57.2 21.5 C 59.4 19.0 62.0 17.6 64.0 15.5 C 66.0 12.9 68.0 11.5 70.1 9.3 C 70.3 6.5 69.5 4.9 69.0 2.6" stroke="url(#smoke)" stroke-width="3.3" fill="none" stroke-linecap="round" opacity="0.62"/>
      <path d="M 66.0 41.0 C 65.9 38.3 64.7 36.9 64.6 34.6 C 64.3 32.1 66.2 30.8 65.9 28.7 C 67.1 25.8 69.3 24.3 70.6 21.9 C 70.8 19.0 70.5 17.5 70.3 15.1 C 68.3 12.6 65.7 11.2 64.2 9.0" stroke="url(#smoke)" stroke-width="2.3" fill="none" stroke-linecap="round" opacity="0.44"/></g>
    <g filter="url(#bloom)"><path d="M 46 92 C 38 96 34 104 39 112 C 44 119 76 119 81 112 C 86 104 82 96 74 92" stroke="url(#gold)" stroke-width="3.4" fill="none" stroke-linecap="round" stroke-linejoin="round"/>
      <path d="M 60 92 L 60 62" stroke="url(#gold)" stroke-width="3.4" fill="none" stroke-linecap="round" stroke-linejoin="round"/>
      <path d="M 40 67 Q 60 58 80 67" stroke="url(#gold)" stroke-width="3.2" fill="none" stroke-linecap="round" stroke-linejoin="round"/>
      <path d="M 51 44 L 48 58 C 48 62 72 62 72 58 L 69 44" stroke="url(#gold)" stroke-width="3.2" fill="none" stroke-linecap="round" stroke-linejoin="round"/>
      <path d="M 51 44 Q 60 40.5 69 44" stroke="url(#gold)" stroke-width="2.6" fill="none" stroke-linecap="round" stroke-linejoin="round"/>
      <path d="M 45 104 C 53 108.5 67 108.5 75 104" stroke="url(#gold)" stroke-width="2.2" fill="none" stroke-linecap="round" stroke-linejoin="round"/>
      <path d="M 63 84 C 75 84 83 90 90 86 C 96 82 96 74 89 73" stroke="url(#gold)" stroke-width="3" fill="none" stroke-linecap="round" stroke-linejoin="round"/></g>
    <circle cx="55" cy="38.5" r="4.41" fill="url(#ember)" opacity="0.9"/><circle cx="55" cy="38.5" r="1.512" fill="#fff0c8"/>
      <circle cx="60.5" cy="36.8" r="5.04" fill="url(#ember)" opacity="0.9"/><circle cx="60.5" cy="36.8" r="1.728" fill="#fff0c8"/>
      <circle cx="66" cy="38.8" r="4.41" fill="url(#ember)" opacity="0.9"/><circle cx="66" cy="38.8" r="1.512" fill="#fff0c8"/>
  </g>
</svg>